<?xml version="1.0"?>
<svg id="Camada_2" data-name="Camada 2" xmlns="http://www.w3.org/2000/svg" viewBox="0 0 490.39 139.55">
  <defs>
    
  </defs>
  <g id="Camada_1-2" data-name="Camada 1">
    <g>
      <g>
        <path class="cls-1" d="M76.07,110.47c0,17.62-15.1,29.09-38.31,29.09S-1.12,126.27.84,106.69h21.11c-.42,9.23,5.45,14.4,15.8,14.4,9.37,0,15.66-4.61,15.66-11.47s-5.45-11.05-15.38-11.05C14.96,98.58,0,84.88,0,63.62S15.66,28.95,37.89,28.95c5.59,0,10.91,1.12,15.66,3.36l8.11-10.07,16.08,11.61-9.23,10.77c4.75,5.45,6.99,11.47,6.99,19.02,0,10.35-5.17,19.3-14.12,24.89,9.37,4.19,14.68,12.03,14.68,21.95ZM54.12,63.62c0-9.79-6.43-16.22-16.22-16.22s-16.22,6.43-16.22,16.22,6.57,16.36,16.22,16.36,16.22-6.57,16.22-16.36Z"></path>
        <path class="cls-1" d="M143.33,36.08l-9.23,16.08c-3.92-2.52-6.99-3.5-10.77-3.5-9.09,0-15.1,5.87-15.1,17.62v33.56h-21.95V30.76h19.16l1.68,8.67c4.75-7.27,11.33-10.21,18.46-10.21,6.15,0,13,2.24,17.76,6.85Z"></path>
        <path class="cls-1" d="M141.51,65.3c0-21.53,14.68-36.08,37.89-36.08s38.03,14.54,38.03,36.08-14.68,36.08-38.03,36.08-37.89-14.54-37.89-36.08ZM195.63,65.3c0-10.07-6.43-17.48-16.22-17.48s-16.08,7.41-16.08,17.48,6.43,17.48,16.08,17.48,16.22-7.41,16.22-17.48Z"></path>
        <path class="cls-1" d="M222.62,65.3c0-21.53,14.68-36.08,37.89-36.08s38.03,14.54,38.03,36.08-14.68,36.08-38.03,36.08-37.89-14.54-37.89-36.08ZM276.73,65.3c0-10.07-6.43-17.48-16.22-17.48s-16.08,7.41-16.08,17.48,6.43,17.48,16.08,17.48,16.22-7.41,16.22-17.48Z"></path>
        <path class="cls-1" d="M377.97,30.76l-29.22,69.08h-22.37l-29.36-69.08h23.91l8.25,20.83,8.53,25.03,8.53-25.03,8.39-20.83h23.35Z"></path>
        <path class="cls-1" d="M381.19,12.03c0-6.99,5.31-12.03,12.86-12.03s12.86,5.03,12.86,12.03-5.31,11.89-12.86,11.89-12.86-4.89-12.86-11.89ZM383,30.76h21.95v69.08h-21.95V30.76Z"></path>
        <path class="cls-1" d="M490.39,30.76v69.08h-19.02l-1.4-8.25c-5.73,6.29-13.56,9.65-22.93,9.65-19.44,0-33-14.68-33-35.94s13.56-35.94,33-35.94c9.37,0,17.34,3.36,22.93,9.51l1.4-8.11h19.02ZM468.72,65.3c0-10.35-6.71-17.48-16.5-17.48s-16.36,7.13-16.36,17.48,6.71,17.48,16.36,17.48,16.5-7.13,16.5-17.48Z"></path>
      </g>
      <circle class="cls-2" cx="369.27" cy="90.96" r="8.88"></circle>
    </g>
  </g>
</svg>